<mxfile host="app.diagrams.net" modified="2022-04-13T12:25:30.478Z" agent="5.0 (Macintosh; Intel Mac OS X 10_15_7) AppleWebKit/537.36 (KHTML, like Gecko) Chrome/100.0.4896.75 Safari/537.36" etag="iqQ6YS670gz51VkXO809" version="17.4.3" type="github">
  <diagram id="kgpKYQtTHZ0yAKxKKP6v" name="Page-1">
    <mxGraphModel dx="786" dy="458" grid="1" gridSize="10" guides="1" tooltips="1" connect="1" arrows="1" fold="1" page="1" pageScale="1" pageWidth="850" pageHeight="1100" math="0" shadow="0">
      <root>
        <mxCell id="0" />
        <mxCell id="1" parent="0" />
        <mxCell id="oYlPoV4KyUNFNu96zUUu-4" value="&lt;div style=&quot;text-align: justify&quot;&gt;1.群发消息&lt;/div&gt;&lt;div style=&quot;text-align: justify&quot;&gt;2.模板消息&lt;/div&gt;&lt;div style=&quot;text-align: justify&quot;&gt;3.一次性订阅消息&lt;/div&gt;" style="edgeStyle=orthogonalEdgeStyle;rounded=0;orthogonalLoop=1;jettySize=auto;html=1;align=center;" edge="1" parent="1" source="oYlPoV4KyUNFNu96zUUu-1" target="oYlPoV4KyUNFNu96zUUu-2">
          <mxGeometry relative="1" as="geometry" />
        </mxCell>
        <mxCell id="oYlPoV4KyUNFNu96zUUu-1" value="客户服务器" style="rounded=1;whiteSpace=wrap;html=1;" vertex="1" parent="1">
          <mxGeometry x="60" y="100" width="120" height="60" as="geometry" />
        </mxCell>
        <mxCell id="oYlPoV4KyUNFNu96zUUu-2" value="TPNS服务器" style="rounded=1;whiteSpace=wrap;html=1;" vertex="1" parent="1">
          <mxGeometry x="300" y="100" width="120" height="60" as="geometry" />
        </mxCell>
        <mxCell id="oYlPoV4KyUNFNu96zUUu-3" value="微信服务器" style="rounded=1;whiteSpace=wrap;html=1;" vertex="1" parent="1">
          <mxGeometry x="530" y="100" width="120" height="60" as="geometry" />
        </mxCell>
      </root>
    </mxGraphModel>
  </diagram>
</mxfile>
